<?xml version="1.0" standalone="no"?>
<!DOCTYPE svg PUBLIC "-//W3C//DTD SVG 20010904//EN"
 "http://www.w3.org/TR/2001/REC-SVG-20010904/DTD/svg10.dtd">
<svg version="1.0" xmlns="http://www.w3.org/2000/svg"
 width="356.000000pt" height="429.000000pt" viewBox="0 0 356.000000 429.000000"
 preserveAspectRatio="xMidYMid meet">

<g transform="translate(0.000000,429.000000) scale(0.100000,-0.100000)"
fill="#000000" stroke="none">
<path d="M1647 3743 c-4 -3 -7 -14 -7 -24 0 -12 -10 -21 -27 -25 -52 -11 -84
-27 -94 -46 -6 -11 -17 -17 -24 -14 -8 3 -12 0 -9 -7 3 -8 -10 -13 -41 -14
-24 -1 -55 -9 -67 -17 -12 -9 -30 -16 -39 -16 -9 0 -22 -7 -29 -15 -7 -8 -21
-15 -31 -15 -11 0 -19 -4 -19 -8 0 -19 -125 -134 -146 -136 -12 0 -20 -4 -18
-8 2 -4 -14 -17 -36 -31 -22 -13 -37 -26 -34 -29 3 -3 -3 -5 -13 -4 -15 1 -18
-7 -18 -39 0 -22 4 -47 9 -56 12 -21 -11 -79 -31 -79 -8 0 -12 4 -9 8 2 4 1
14 -4 21 -13 22 -4 -407 10 -468 7 -29 20 -113 30 -185 l17 -131 -23 -26 c-31
-33 -33 -108 -4 -164 12 -22 28 -70 36 -106 15 -65 16 -66 39 -55 19 9 25 19
25 46 0 49 -22 200 -29 200 -3 0 -3 73 0 162 6 167 21 243 46 234 9 -4 13 3
13 19 0 13 8 29 19 34 11 6 21 27 26 53 5 24 9 46 10 51 1 4 3 12 4 17 0 6 8
10 17 10 10 0 14 -6 11 -14 -4 -10 -1 -13 9 -9 7 3 14 2 14 -2 0 -9 -22 -49
-30 -55 -10 -7 -23 -70 -15 -70 13 0 80 34 87 44 4 6 8 8 8 3 0 -4 20 14 45
39 26 26 52 44 60 41 7 -3 16 1 19 9 3 9 10 12 16 9 5 -3 10 -1 10 5 0 6 5 8
10 5 6 -3 10 -14 10 -23 0 -13 -9 -17 -40 -16 -42 1 -48 -4 -29 -23 8 -8 6
-17 -10 -34 -11 -13 -21 -26 -21 -30 0 -3 -24 -14 -54 -23 -60 -19 -150 -101
-127 -115 9 -6 8 -24 -5 -77 -9 -38 -21 -75 -27 -82 -6 -7 -10 -33 -9 -58 0
-34 6 -51 26 -71 14 -14 26 -29 26 -33 0 -5 15 -8 33 -7 36 0 108 -31 115 -50
2 -7 -4 -13 -13 -13 -13 0 -16 -6 -13 -25 3 -14 1 -25 -3 -25 -5 0 -9 -8 -10
-17 0 -12 -4 -9 -10 8 -7 20 -15 26 -29 22 -11 -3 -20 -11 -20 -18 0 -7 -5
-15 -11 -17 -5 -2 -11 -12 -13 -23 -2 -11 -8 -20 -14 -20 -18 0 -38 -25 -27
-33 16 -11 25 -165 11 -179 -4 -4 -11 -2 -15 6 -15 23 -21 -14 -8 -54 9 -31
12 -34 19 -19 6 14 7 11 4 -11 -5 -35 10 -69 26 -59 7 4 8 3 4 -5 -13 -21 127
-219 217 -305 52 -50 66 -76 42 -76 -19 0 -62 -43 -122 -121 -43 -55 -49 -68
-38 -82 14 -20 25 -12 25 18 0 31 11 38 26 17 11 -14 14 -14 15 -2 2 22 17
-30 18 -62 1 -19 -4 -28 -15 -28 -13 0 -15 -7 -9 -41 4 -23 3 -51 -3 -63 -30
-65 -32 -76 -16 -76 31 0 71 39 103 101 33 63 81 132 87 126 3 -3 -21 -133
-31 -167 -3 -8 -16 -16 -31 -16 -14 -1 -27 -4 -30 -7 -9 -9 8 -35 32 -47 13
-7 24 -19 24 -27 0 -25 129 -349 191 -478 45 -96 64 -126 70 -115 39 65 153
246 158 250 4 3 22 32 40 65 53 94 119 174 171 206 49 30 73 72 155 269 15 36
31 70 35 75 34 44 110 355 110 450 0 59 -36 131 -57 114 -7 -6 -13 -21 -13
-33 0 -20 -50 -60 -75 -61 -14 0 -6 68 9 80 19 14 29 52 16 60 -15 9 -12 35 4
35 16 0 31 53 21 70 -3 5 -1 10 4 10 15 0 14 27 -1 33 -10 4 -9 8 2 17 13 10
13 11 -2 6 -21 -6 -48 38 -48 79 0 15 -7 33 -15 41 -8 9 -15 26 -15 38 0 20
-6 24 -52 29 -29 4 -65 16 -80 27 -15 11 -30 20 -34 20 -3 0 -15 11 -26 25
-11 14 -24 22 -30 19 -5 -3 -19 4 -30 16 -21 22 -21 23 -3 36 17 12 14 18 -7
15 -4 0 -5 6 -2 13 5 12 10 12 37 1 18 -8 31 -19 30 -25 -4 -13 14 -13 22 0 4
7 12 7 25 0 26 -14 40 -12 40 5 0 8 7 15 15 15 9 0 23 16 32 35 17 35 17 35
-12 65 l-29 31 72 -6 c86 -7 88 -3 36 74 -29 43 -35 58 -26 72 13 21 6 29 -26
29 l-24 0 23 20 c13 10 19 19 13 20 -6 0 -14 13 -17 29 -7 35 -71 75 -137 86
-57 8 -107 23 -143 42 -16 8 -39 12 -53 9 -13 -4 -24 -3 -24 2 0 4 -16 6 -35
4 -25 -3 -36 0 -41 12 -8 22 -28 20 -81 -6 -36 -18 -48 -20 -63 -10 -11 7 -26
12 -34 12 -7 0 -27 7 -42 15 -16 8 -23 15 -16 15 6 0 12 11 12 24 0 24 2 25
70 23 38 -1 70 -5 70 -9 0 -14 27 -8 74 17 39 20 63 25 132 27 l86 2 -7 35
c-4 20 -11 38 -16 39 -5 2 -6 8 -3 13 3 6 15 0 26 -13 18 -21 20 -21 29 -5 6
9 22 17 37 17 17 0 22 3 15 8 -10 7 -10 12 0 26 18 25 110 27 159 3 41 -19 72
-69 55 -86 -7 -7 -1 -25 20 -59 16 -27 33 -62 37 -78 4 -16 25 -51 46 -79 45
-60 57 -107 66 -269 6 -114 7 -117 23 -94 9 14 23 32 33 41 23 23 33 97 41
317 3 69 8 143 12 163 5 24 2 49 -6 70 -8 17 -14 37 -14 42 -2 27 -18 64 -30
69 -10 3 -11 14 -4 43 11 50 11 66 -1 58 -6 -4 -10 7 -10 26 0 23 -10 41 -40
71 -22 22 -40 49 -40 59 0 11 -6 19 -13 19 -12 0 -37 26 -103 108 -15 18 -43
41 -62 50 -20 9 -43 30 -52 46 -9 16 -21 31 -28 34 -16 5 -16 -25 1 -31 6 -3
-1 -6 -16 -6 -16 -1 -26 3 -22 8 3 5 -3 11 -12 14 -15 3 -14 6 7 15 17 7 20
11 8 11 -9 1 -20 10 -23 21 -6 20 -7 20 -25 -2 -15 -19 -20 -20 -33 -10 -13
11 -17 10 -27 -8 l-12 -22 -24 23 c-13 12 -26 30 -29 40 -4 11 -12 16 -21 12
-13 -5 -13 -8 2 -24 24 -27 13 -32 -45 -24 -32 4 -59 15 -75 30 -15 13 -26 20
-26 16 0 -5 -31 -8 -70 -7 -38 1 -70 3 -70 6 0 3 4 20 9 38 10 33 9 37 -2 25z
m-43 -71 c2 -4 -15 -17 -40 -28 -51 -24 -58 -15 -11 15 35 23 43 25 51 13z
m419 -635 c-10 -6 -21 -2 -34 12 -27 29 -24 33 15 13 27 -13 31 -19 19 -25z
m-789 -33 c3 -8 -1 -22 -9 -30 -8 -9 -15 -27 -15 -42 -1 -25 -2 -26 -14 -9
-13 17 -14 17 -20 0 -5 -13 -9 -14 -15 -5 -13 22 -6 50 20 76 29 28 45 32 53
10z m246 -114 c0 -5 -7 -10 -15 -10 -8 0 -15 5 -15 10 0 6 7 10 15 10 8 0 15
-4 15 -10z m-359 -83 c-20 -20 -21 -20 -21 -3 0 11 8 28 18 39 16 18 17 18 20
2 2 -10 -5 -27 -17 -38z m653 -232 c9 -14 16 -37 16 -53 0 -33 24 -97 41 -107
5 -4 8 -13 5 -21 -3 -8 1 -14 9 -14 14 0 38 -66 30 -81 -3 -4 9 -30 26 -58 21
-34 29 -56 24 -68 -5 -11 -9 -14 -12 -6 -2 7 -11 9 -19 6 -7 -3 -17 2 -20 11
-3 9 -10 13 -15 10 -5 -3 -9 -1 -9 5 0 6 -7 8 -15 5 -8 -3 -31 3 -50 15 -37
22 -80 28 -89 12 -5 -8 -52 -22 -90 -26 -11 -1 -25 -10 -31 -19 -14 -19 -25
-21 -25 -3 0 6 25 37 54 68 59 62 69 84 68 144 0 31 1 35 8 20 9 -21 9 -21 15
47 3 29 1 36 -11 31 -8 -3 -14 0 -14 6 0 6 5 11 10 11 6 0 10 6 9 13 -5 40 3
65 24 74 28 13 42 8 61 -22z m-734 -235 c5 0 10 -5 10 -12 0 -6 -7 -4 -18 5
-10 10 -24 17 -31 17 -9 0 -9 3 1 14 11 12 14 11 20 -5 4 -10 12 -19 18 -19z
m170 4 c0 -8 -5 -12 -10 -9 -6 4 -8 11 -5 16 9 14 15 11 15 -7z m193 -98 c4
-10 1 -13 -9 -9 -8 3 -20 0 -28 -6 -7 -6 -16 -8 -20 -4 -4 4 4 13 16 20 30 16
35 16 41 -1z m-233 -374 c0 -15 -2 -15 -10 -2 -13 20 -13 33 0 25 6 -3 10 -14
10 -23z m1085 -24 c-4 -18 -11 -37 -16 -42 -14 -15 -21 0 -10 21 5 10 12 26
15 36 9 30 18 18 11 -15z m-436 -12 c17 -20 3 -46 -24 -46 -33 0 -41 18 -19
40 23 23 28 24 43 6z m-89 -27 c0 -23 -27 -36 -42 -21 -5 5 -7 19 -4 30 8 26
46 18 46 -9z m-95 13 c9 -6 11 -14 6 -39 -1 -8 -30 29 -31 40 0 9 12 9 25 -1z
m245 -7 c0 -8 -4 -15 -10 -15 -5 0 -10 7 -10 15 0 8 5 15 10 15 6 0 10 -7 10
-15z m218 -237 c2 -28 -2 -40 -20 -52 -30 -21 -41 -7 -27 35 6 19 13 40 15 47
8 26 29 5 32 -30z"/>
<path d="M2496 2358 c-22 -32 -20 -47 10 -60 14 -7 31 -26 38 -42 l13 -31 11
40 c16 54 15 84 -2 101 -21 21 -53 17 -70 -8z"/>
<path d="M2460 2283 c0 -15 7 -37 15 -47 19 -25 19 -28 -5 -56 -11 -13 -20
-29 -20 -35 0 -22 39 -24 66 -3 22 18 25 25 19 60 -5 26 -19 52 -41 75 l-34
35 0 -29z"/>
<path d="M2500 2110 c-8 -5 -11 -12 -8 -16 10 -9 38 3 38 16 0 12 -10 13 -30
0z"/>
<path d="M1057 2037 c-4 -11 24 -57 35 -57 1 0 3 11 3 24 0 15 -5 22 -13 19
-8 -4 -10 0 -6 11 3 9 2 16 -4 16 -5 0 -12 -6 -15 -13z"/>
<path d="M2435 1990 c-3 -5 -1 -10 4 -10 6 0 11 5 11 10 0 6 -2 10 -4 10 -3 0
-8 -4 -11 -10z"/>
<path d="M1103 1963 c-18 -7 -16 -16 5 -30 17 -10 18 -8 14 13 -2 13 -5 24 -6
23 0 0 -7 -3 -13 -6z"/>
<path d="M1241 1132 c-12 -18 -20 -32 -17 -32 12 0 47 42 44 52 -2 6 -14 -3
-27 -20z"/>
<path d="M2523 852 c-25 -25 -68 -51 -134 -83 -50 -24 -59 -33 -75 -76 -10
-26 -30 -72 -45 -102 -15 -30 -25 -61 -21 -69 3 -10 1 -13 -6 -8 -7 4 -29 -7
-53 -28 -23 -19 -55 -42 -73 -50 -17 -9 -42 -25 -56 -37 -22 -18 -22 -19 -3
-10 12 6 24 15 27 20 3 5 18 12 32 15 15 4 46 23 69 42 26 21 49 32 58 28 21
-8 41 28 24 45 -8 8 -7 15 5 27 15 15 16 14 23 -5 9 -28 23 -27 31 4 3 14 11
25 17 25 6 0 8 2 5 5 -3 3 12 24 33 45 22 22 39 44 39 50 0 5 9 10 20 10 11 0
20 7 20 15 0 8 10 20 23 26 32 17 54 42 49 57 -2 7 0 18 6 25 15 20 22 47 12
47 -5 0 -17 -8 -27 -18z m-203 -226 c0 -3 -4 -8 -10 -11 -5 -3 -10 -1 -10 4 0
6 5 11 10 11 6 0 10 -2 10 -4z m-3 -58 c-3 -8 -6 -5 -6 6 -1 11 2 17 5 13 3
-3 4 -12 1 -19z"/>
<path d="M2570 829 c0 -5 5 -7 10 -4 6 3 10 8 10 11 0 2 -4 4 -10 4 -5 0 -10
-5 -10 -11z"/>
<path d="M2270 550 c0 -5 5 -10 10 -10 6 0 10 5 10 10 0 6 -4 10 -10 10 -5 0
-10 -4 -10 -10z"/>
<path d="M2220 480 c0 -5 5 -10 10 -10 6 0 10 5 10 10 0 6 -4 10 -10 10 -5 0
-10 -4 -10 -10z"/>
<path d="M1966 335 c-11 -8 -15 -15 -9 -15 6 0 16 7 23 15 16 19 11 19 -14 0z"/>
<path d="M1880 255 c-13 -14 -20 -25 -17 -25 10 0 49 41 45 46 -3 2 -15 -7
-28 -21z"/>
</g>
</svg>
